<?xml version="1.0" encoding="utf-8"?>
<!-- Generator: Adobe Illustrator 21.0.2, SVG Export Plug-In . SVG Version: 6.00 Build 0)  -->
<svg version="1.1" id="Layer_1" xmlns="http://www.w3.org/2000/svg" xmlns:xlink="http://www.w3.org/1999/xlink" x="0px" y="0px"
	 viewBox="0 0 3000.3 2992.2" style="enable-background:new 0 0 3000.3 2992.2;" xml:space="preserve">
<style type="text/css">
	.st0{display:none;fill:#0573FF;}
	.st1{display:none;fill:#286EFF;}
	.st2{display:none;fill:#2C61EC;}
	.st3{display:none;}
	.st4{display:inline;}
	.st5{fill:#2C61EC;}
	.st6{fill:#286EFF;}
	.st7{fill:#0573FF;}
</style>
<rect id="LIGHTBLUE" x="-2862.2" y="-1035.7" class="st0" width="1958.8" height="2107.9"/>
<rect id="middleBLUE" x="-2327.8" y="411.4" class="st1" width="2062.2" height="2219.2"/>
<rect id="darkBLUE" x="-2871.5" y="1590.6" class="st2" width="2062.2" height="2219.2"/>
<g id="smaller" class="st3">
	<g id="bracketsLogo-2" class="st4">
		<polygon class="st5" points="212.6,-844.5 212.6,-831.7 260.4,-784.7 214.2,-738 214.2,-723.9 274.5,-784.7 		"/>
		<polygon class="st5" points="107,-844.5 107,-831.7 59.2,-784.7 105.4,-738 105.4,-723.9 45.1,-784.7 		"/>
		<path id="flameLogo-2" class="st5" d="M186-791.8c-7.5-4.4-19.8-10.2-21.7-20.6c-5.5,11,20.9,27,9.1,43.2
			c-4.5,6.1-22.9,11-31.1,1.5c-22.6-25.7,40.6-59.8,22.1-80.1c1.3,7.7-3,12.5-8.6,15.6c-35.4,19.4-40.3,34.6-41.3,36.8
			c4.3-5.8,9.4-11,15.1-15.2c14.5-10.8,22-12.2,22-12.2s-24.1,24.3-25.9,40.7c-2.1,19,18.4,29.2,29.2,29.2s22.6-1.5,28.7-14.7
			c2.8-6,3.5-13.3-2.5-20c0,0,23.6,15.7,11.7,34.2c-8.5,13.2-32.1,11.1-41.1,23.5c-4.6-3.1-9.8-5.1-15.3-5.9c1,0.7,2.1,1.4,3.2,1.9
			c6,3,14,13.5,14,13.5s2.2-8.3,10.2-11.6s20.7-6.8,27.3-10C208.4-750.5,212.9-775.9,186-791.8z"/>
	</g>
	<g id="bracketsLogo-3" class="st4">
		<polygon class="st5" points="428.2,-59.3 428.2,-46.5 476,0.5 429.9,47.2 429.9,61.3 490.2,0.5 		"/>
		<polygon class="st5" points="322.6,-59.3 322.6,-46.5 274.8,0.5 321,47.2 321,61.3 260.7,0.5 		"/>
		<path id="flameLogo-3" class="st5" d="M401.6-6.6c-7.5-4.4-19.8-10.2-21.7-20.5c-5.5,11,21,27,9.1,43.2c-4.5,6.1-22.9,11-31.1,1.5
			C335.4-8.2,398.5-42.3,380-62.6c1.3,7.7-3,12.5-8.6,15.6c-35.4,19.4-40.3,34.6-41.3,36.8c4.2-5.8,9.3-10.9,15.1-15.2
			c14.5-10.8,22-12.2,22-12.2s-24,24.3-25.9,40.6c-2.1,19,18.4,29.2,29.2,29.2c10.8,0,22.6-1.5,28.7-14.7c2.8-6,3.5-13.3-2.5-20
			c0,0,23.6,15.7,11.7,34.2c-8.5,13.3-32.1,11.1-41,23.5c-4.6-3.1-9.9-5.1-15.3-5.9c1,0.7,2.1,1.4,3.3,1.9c6,3,14,13.5,14,13.5
			s2.2-8.3,10.2-11.6s20.7-6.8,27.3-10C424,34.7,428.5,9.3,401.6-6.6z"/>
	</g>
	<g id="bracketsLogo-6_1_" class="st4">
		<polygon class="st5" points="3025.4,-808.7 3025.4,-795.9 3073.2,-748.9 3027,-702.2 3027,-688.1 3087.3,-748.9 		"/>
		<polygon class="st5" points="2919.8,-808.7 2919.8,-795.9 2872,-748.9 2918.2,-702.2 2918.2,-688.1 2857.9,-748.9 		"/>
		<path id="flameLogo-6_1_" class="st5" d="M2998.8-756c-7.5-4.4-19.8-10.2-21.7-20.6c-5.5,11,20.9,27,9.1,43.2
			c-4.5,6.1-22.8,11-31.1,1.5c-22.6-25.8,40.6-59.9,22.1-80.2c1.3,7.7-3,12.5-8.6,15.6c-35.4,19.4-40.3,34.6-41.3,36.8
			c4.3-5.8,9.4-11,15.1-15.2c14.5-10.8,22-12.2,22-12.2s-24.1,24.3-25.9,40.6c-2.1,19,18.4,29.2,29.2,29.2s22.6-1.5,28.7-14.7
			c2.8-6,3.5-13.3-2.5-20c0,0,23.6,15.7,11.7,34.2c-8.5,13.2-32.1,11.1-41.1,23.5c-4.6-3.1-9.9-5.1-15.3-5.9c1,0.7,2.1,1.4,3.2,1.9
			c6,3,14,13.5,14,13.5s2.2-8.3,10.2-11.6s20.7-6.8,27.3-10C3021.2-714.6,3025.7-740.1,2998.8-756z"/>
	</g>
	<g id="bracketsLogo-8" class="st4">
		<polygon class="st5" points="2408.5,-393.7 2408.5,-381 2456.3,-334 2410.1,-287.2 2410.1,-273.1 2470.4,-334 		"/>
		<polygon class="st5" points="2302.9,-393.7 2302.9,-381 2255.1,-334 2301.3,-287.2 2301.3,-273.1 2241,-334 		"/>
		<path id="flameLogo-8" class="st5" d="M2381.9-341c-7.5-4.4-19.8-10.2-21.7-20.5c-5.5,11,20.9,27,9.1,43.2
			c-4.5,6.1-22.8,11-31.1,1.5c-22.6-25.8,40.6-59.9,22.1-80.2c1.3,7.7-3,12.5-8.6,15.6c-35.4,19.4-40.3,34.6-41.3,36.8
			c4.3-5.8,9.4-11,15.1-15.2c14.5-10.8,22-12.2,22-12.2s-24.1,24.3-25.9,40.6c-2.1,19,18.4,29.2,29.2,29.2s22.6-1.5,28.7-14.7
			c2.8-6,3.5-13.3-2.5-20c0,0,23.6,15.7,11.7,34.2c-8.5,13.2-32.1,11.1-41.1,23.5c-4.6-3.1-9.9-5.1-15.3-5.9c1,0.7,2.1,1.4,3.2,1.9
			c6,3,14,13.5,14,13.5s2.2-8.3,10.2-11.6s20.7-6.8,27.3-10C2404.3-299.7,2408.8-325.1,2381.9-341z"/>
	</g>
	<g id="bracketsLogo-9" class="st4">
		<polygon class="st5" points="1880.8,-16.2 1880.8,-3.4 1928.6,43.6 1882.5,90.3 1882.5,104.4 1942.8,43.6 		"/>
		<polygon class="st5" points="1775.2,-16.2 1775.2,-3.4 1727.4,43.6 1773.6,90.3 1773.6,104.4 1713.3,43.6 		"/>
		<path id="flameLogo-9" class="st5" d="M1854.2,36.5c-7.5-4.4-19.8-10.2-21.7-20.5c-5.5,11,20.9,27,9.1,43.2
			c-4.5,6.1-22.8,11-31.1,1.5c-22.6-25.8,40.6-59.9,22.1-80.2c1.3,7.7-3,12.5-8.6,15.6c-35.4,19.4-40.3,34.6-41.3,36.8
			c4.3-5.8,9.4-11,15.1-15.2c14.5-10.8,22-12.2,22-12.2s-24.1,24.3-25.9,40.7c-2.1,19,18.4,29.2,29.2,29.2s22.6-1.5,28.7-14.7
			c2.8-6,3.5-13.3-2.5-20c0,0,23.6,15.7,11.7,34.2c-8.5,13.2-32.1,11.1-41.1,23.5c-4.6-3.1-9.9-5.1-15.3-5.9c1,0.7,2.1,1.4,3.2,1.9
			c6,3,14,13.5,14,13.5s2.2-8.3,10.2-11.6s20.7-6.8,27.3-10C1876.6,77.8,1881.1,52.4,1854.2,36.5z"/>
	</g>
	<g id="bracketsLogo-9_2_" class="st4">
		<polygon class="st5" points="2861.1,223.5 2861.1,236.3 2908.9,283.3 2862.8,330 2862.8,344.1 2923.1,283.3 		"/>
		<polygon class="st5" points="2755.5,223.5 2755.5,236.3 2707.7,283.3 2753.9,330 2753.9,344.1 2693.6,283.3 		"/>
		<path id="flameLogo-9_2_" class="st5" d="M2834.5,276.2c-7.5-4.4-19.8-10.2-21.7-20.5c-5.5,11,20.9,27,9.1,43.2
			c-4.5,6.1-22.8,11-31.1,1.5c-22.6-25.8,40.6-59.9,22.1-80.2c1.3,7.7-3,12.5-8.6,15.6c-35.4,19.4-40.3,34.6-41.3,36.8
			c4.3-5.8,9.4-11,15.1-15.2c14.5-10.8,22-12.2,22-12.2s-24.1,24.3-25.9,40.7c-2.1,19,18.4,29.2,29.2,29.2s22.6-1.5,28.7-14.7
			c2.8-6,3.5-13.3-2.5-20c0,0,23.6,15.7,11.7,34.2c-8.5,13.2-32.1,11.1-41.1,23.5c-4.6-3.1-9.9-5.1-15.3-5.9c1,0.7,2.1,1.4,3.2,1.9
			c6,3,14,13.5,14,13.5s2.2-8.3,10.2-11.6c8-3.3,20.7-6.8,27.3-10C2856.9,317.5,2861.4,292.1,2834.5,276.2z"/>
	</g>
	<g id="bracketsLogo-9_4_" class="st4">
		<polygon class="st5" points="2763.1,1011.9 2763.1,1024.7 2810.9,1071.7 2764.8,1118.4 2764.8,1132.5 2825.1,1071.7 		"/>
		<polygon class="st5" points="2657.5,1011.9 2657.5,1024.7 2609.7,1071.7 2655.9,1118.4 2655.9,1132.5 2595.6,1071.7 		"/>
		<path id="flameLogo-9_4_" class="st5" d="M2736.5,1064.6c-7.5-4.4-19.8-10.2-21.7-20.5c-5.5,11,20.9,27,9.1,43.2
			c-4.5,6.1-22.8,11-31.1,1.5c-22.6-25.8,40.6-59.9,22.1-80.2c1.3,7.7-3,12.5-8.6,15.6c-35.4,19.4-40.3,34.6-41.3,36.8
			c4.3-5.8,9.4-11,15.1-15.2c14.5-10.8,22-12.2,22-12.2s-24.1,24.3-25.9,40.7c-2.1,19,18.4,29.2,29.2,29.2s22.6-1.5,28.7-14.7
			c2.8-6,3.5-13.3-2.5-20c0,0,23.6,15.7,11.7,34.2c-8.5,13.2-32.1,11.1-41.1,23.5c-4.6-3.1-9.9-5.1-15.3-5.9c1,0.7,2.1,1.4,3.2,1.9
			c6,3,14,13.5,14,13.5s2.2-8.3,10.2-11.6c8-3.3,20.7-6.8,27.3-10C2758.9,1105.9,2763.4,1080.5,2736.5,1064.6z"/>
	</g>
	<g id="bracketsLogo-9_6_" class="st4">
		<polygon class="st5" points="3013.9,2006.6 3013.9,2019.4 3061.7,2066.4 3015.6,2113.1 3015.6,2127.2 3075.9,2066.4 		"/>
		<polygon class="st5" points="2908.3,2006.6 2908.3,2019.4 2860.5,2066.4 2906.7,2113.1 2906.7,2127.2 2846.4,2066.4 		"/>
		<path id="flameLogo-9_6_" class="st5" d="M2987.3,2059.3c-7.5-4.4-19.8-10.2-21.7-20.5c-5.5,11,20.9,27,9.1,43.2
			c-4.5,6.1-22.8,11-31.1,1.5c-22.6-25.8,40.6-59.9,22.1-80.2c1.3,7.7-3,12.5-8.6,15.6c-35.4,19.4-40.3,34.6-41.3,36.8
			c4.3-5.8,9.4-11,15.1-15.2c14.5-10.8,22-12.2,22-12.2s-24.1,24.3-25.9,40.7c-2.1,19,18.4,29.2,29.2,29.2s22.6-1.5,28.7-14.7
			c2.8-6,3.5-13.3-2.5-20c0,0,23.6,15.7,11.7,34.2c-8.5,13.2-32.1,11.1-41.1,23.5c-4.6-3.1-9.9-5.1-15.3-5.9c1,0.7,2.1,1.4,3.2,1.9
			c6,3,14,13.5,14,13.5s2.2-8.3,10.2-11.6s20.7-6.8,27.3-10C3009.7,2100.6,3014.2,2075.2,2987.3,2059.3z"/>
	</g>
	<g id="bracketsLogo-19" class="st4">
		<polygon class="st5" points="113.2,643.7 113.2,656.5 161,703.5 114.9,750.2 114.9,764.3 175.2,703.5 		"/>
		<polygon class="st5" points="7.6,643.7 7.6,656.5 -40.2,703.5 6,750.2 6,764.3 -54.3,703.5 		"/>
		<path id="flameLogo-19" class="st5" d="M86.6,696.4c-7.5-4.4-19.8-10.2-21.7-20.6c-5.5,11,20.9,27,9.1,43.2
			c-4.5,6.1-22.9,11-31.1,1.5c-22.6-25.8,40.6-59.9,22.1-80.2c1.3,7.7-3,12.5-8.6,15.6c-35.4,19.4-40.3,34.6-41.3,36.8
			c4.3-5.8,9.4-11,15.1-15.2c14.5-10.8,22-12.2,22-12.2S28.1,689.6,26.3,706c-2.1,19,18.4,29.2,29.2,29.2s22.6-1.5,28.7-14.7
			c2.8-6,3.5-13.3-2.5-20c0,0,23.6,15.7,11.7,34.2c-8.5,13.2-32.1,11.1-41.1,23.5c-4.6-3.1-9.9-5.1-15.4-5.9c1,0.7,2.1,1.4,3.2,1.9
			c6,3,14,13.5,14,13.5s2.2-8.3,10.2-11.6s20.7-6.8,27.3-10C109,737.7,113.5,712.3,86.6,696.4z"/>
	</g>
	<g id="bracketsLogo-23" class="st4">
		<polygon class="st5" points="474.7,1262.5 474.7,1275.3 522.5,1322.3 476.4,1369 476.4,1383.1 536.7,1322.3 		"/>
		<polygon class="st5" points="369.1,1262.5 369.1,1275.3 321.3,1322.3 367.5,1369 367.5,1383.1 307.2,1322.3 		"/>
		<path id="flameLogo-23" class="st5" d="M448.1,1315.2c-7.5-4.4-19.8-10.2-21.7-20.6c-5.5,11,20.9,27,9.1,43.2
			c-4.5,6.1-22.8,11-31.1,1.5c-22.5-25.8,40.6-59.9,22.1-80.2c1.3,7.7-3,12.5-8.6,15.6c-35.4,19.4-40.3,34.6-41.3,36.8
			c4.3-5.8,9.4-11,15.1-15.2c14.5-10.8,22-12.2,22-12.2s-24.1,24.3-25.9,40.7c-2.1,19,18.4,29.2,29.2,29.2
			c10.8,0,22.6-1.5,28.7-14.7c2.8-6,3.5-13.3-2.5-20c0,0,23.6,15.7,11.7,34.2c-8.5,13.2-32.1,11.1-41.1,23.5
			c-4.6-3.1-9.9-5.1-15.4-5.9c1,0.7,2.1,1.4,3.2,1.9c6,3,14,13.5,14,13.5s2.2-8.3,10.2-11.6s20.7-6.8,27.3-10
			C470.5,1356.6,475,1331.2,448.1,1315.2z"/>
	</g>
	<g id="bracketsLogo-25" class="st4">
		<polygon class="st5" points="1644.8,851.3 1644.8,864.1 1692.6,911.1 1646.4,957.8 1646.4,971.9 1706.7,911.1 		"/>
		<polygon class="st5" points="1539.2,851.3 1539.2,864.1 1491.4,911.1 1537.6,957.8 1537.6,971.9 1477.3,911.1 		"/>
		<path id="flameLogo-25" class="st5" d="M1618.2,904c-7.5-4.4-19.8-10.2-21.7-20.6c-5.5,11,20.9,27,9.1,43.2
			c-4.5,6.1-22.8,11-31.1,1.5c-22.6-25.8,40.6-59.9,22.1-80.2c1.3,7.7-3,12.5-8.6,15.6c-35.4,19.4-40.3,34.6-41.3,36.8
			c4.3-5.8,9.4-11,15.1-15.2c14.5-10.8,22-12.2,22-12.2s-24.1,24.3-25.9,40.6c-2.1,19,18.4,29.2,29.2,29.2s22.6-1.5,28.7-14.7
			c2.8-6,3.5-13.3-2.5-20c0,0,23.6,15.7,11.7,34.2c-8.5,13.2-32.1,11.1-41.1,23.5c-4.6-3.1-9.9-5.1-15.3-5.9c1,0.7,2.1,1.4,3.2,1.9
			c6,3,14,13.5,14,13.5s2.2-8.3,10.2-11.6s20.7-6.8,27.3-10C1640.6,945.3,1645.1,919.9,1618.2,904z"/>
	</g>
	<g id="bracketsLogo-26" class="st4">
		<polygon class="st5" points="2117.7,1550 2117.7,1562.8 2165.5,1609.8 2119.4,1656.5 2119.4,1670.6 2179.7,1609.8 		"/>
		<polygon class="st5" points="2012.1,1550 2012.1,1562.8 1964.3,1609.8 2010.5,1656.5 2010.5,1670.6 1950.2,1609.8 		"/>
		<path id="flameLogo-26" class="st5" d="M2091.1,1602.7c-7.5-4.4-19.8-10.2-21.7-20.6c-5.5,11,20.9,27,9.1,43.2
			c-4.5,6.1-22.8,11-31.1,1.5c-22.6-25.8,40.6-59.9,22.1-80.2c1.3,7.7-3,12.5-8.6,15.6c-35.4,19.4-40.3,34.6-41.3,36.8
			c4.3-5.8,9.4-11,15.1-15.2c14.5-10.8,22-12.2,22-12.2s-24.1,24.3-25.9,40.6c-2.1,19,18.4,29.2,29.2,29.2s22.6-1.5,28.7-14.7
			c2.8-6,3.5-13.3-2.5-20c0,0,23.6,15.7,11.7,34.2c-8.5,13.2-32.1,11.1-41.1,23.5c-4.6-3.1-9.9-5.1-15.3-5.9c1,0.7,2.1,1.4,3.2,1.9
			c6,3,14,13.5,14,13.5s2.2-8.3,10.2-11.6s20.7-6.8,27.3-10C2113.5,1644,2118,1618.6,2091.1,1602.7z"/>
	</g>
	<g id="bracketsLogo-27" class="st4">
		<polygon class="st5" points="1333.3,2128 1333.3,2140.8 1381.1,2187.8 1335,2234.5 1335,2248.6 1395.3,2187.8 		"/>
		<polygon class="st5" points="1227.7,2128 1227.7,2140.8 1179.9,2187.8 1226.1,2234.5 1226.1,2248.6 1165.8,2187.8 		"/>
		<path id="flameLogo-27" class="st5" d="M1306.7,2180.7c-7.5-4.4-19.8-10.2-21.7-20.6c-5.5,11,20.9,27,9.1,43.2
			c-4.5,6.1-22.8,11-31.1,1.5c-22.6-25.8,40.6-59.9,22.1-80.2c1.3,7.7-3,12.5-8.6,15.6c-35.4,19.4-40.3,34.6-41.3,36.8
			c4.3-5.8,9.4-11,15.1-15.2c14.5-10.8,22-12.2,22-12.2s-24.1,24.3-25.9,40.6c-2.1,19,18.4,29.2,29.2,29.2s22.6-1.5,28.7-14.7
			c2.8-6,3.5-13.3-2.5-20c0,0,23.6,15.7,11.7,34.2c-8.5,13.2-32.1,11.1-41.1,23.5c-4.6-3.1-9.9-5.1-15.3-5.9c1,0.7,2.1,1.4,3.2,1.9
			c6,3,14,13.5,14,13.5s2.2-8.3,10.2-11.6s20.7-6.8,27.3-10C1329.1,2222,1333.6,2196.6,1306.7,2180.7z"/>
	</g>
	<g id="bracketsLogo-28" class="st4">
		<polygon class="st5" points="238.2,2028.8 238.2,2041.5 286,2088.5 239.8,2135.3 239.8,2149.4 300.1,2088.5 		"/>
		<polygon class="st5" points="132.5,2028.8 132.5,2041.5 84.7,2088.5 130.9,2135.3 130.9,2149.4 70.6,2088.5 		"/>
		<path id="flameLogo-28" class="st5" d="M211.5,2081.5c-7.5-4.4-19.8-10.2-21.7-20.6c-5.5,11,21,27,9.1,43.2
			c-4.5,6.1-22.8,11-31.1,1.5c-22.5-25.8,40.6-59.9,22.1-80.2c1.3,7.7-3,12.5-8.6,15.6c-35.4,19.4-40.3,34.6-41.3,36.8
			c4.3-5.8,9.4-11,15.1-15.2c14.5-10.8,22-12.2,22-12.2s-24.1,24.3-26,40.6c-2.1,19,18.4,29.2,29.2,29.2s22.6-1.5,28.7-14.7
			c2.8-6,3.5-13.3-2.5-20c0,0,23.6,15.7,11.7,34.2c-8.5,13.2-32.1,11.1-41.1,23.5c-4.6-3.1-9.9-5.1-15.3-5.9c1,0.7,2.1,1.4,3.2,1.9
			c6,3,14,13.5,14,13.5s2.2-8.3,10.2-11.6s20.7-6.8,27.3-10C233.9,2122.8,238.4,2097.4,211.5,2081.5z"/>
	</g>
</g>
<g id="medium" class="st3">
	<g id="bigger" class="st4">
		<g id="bracketsLogo-2_1_">
			<polygon class="st6" points="377.9,-463.5 377.9,-435.6 482,-333.2 381.3,-231.4 381.3,-200.7 512.8,-333.2 			"/>
			<polygon class="st6" points="147.7,-463.5 147.7,-435.6 43.5,-333.2 144.2,-231.4 144.2,-200.7 12.8,-333.2 			"/>
			<path id="flameLogo-2_1_" class="st6" d="M319.9-348.7c-16.3-9.6-43.2-22.2-47.3-44.9c-12,24,45.6,58.8,19.8,94.2
				c-9.8,13.3-49.9,24-67.8,3.3c-49.3-56,88.5-130.3,48.2-174.6c2.8,16.8-6.5,27.2-18.7,34c-77.2,42.3-87.8,75.4-90,80.2
				c9.4-12.6,20.5-24,32.9-33.1c31.6-23.5,48-26.6,48-26.6s-52.5,53-56.5,88.7c-4.6,41.4,40.1,63.6,63.6,63.6s49.3-3.3,62.6-32
				c6.1-13.1,7.6-29-5.4-43.6c0,0,51.4,34.2,25.5,74.5c-18.5,28.8-70,24.2-89.6,51.2c-10-6.8-21.4-11.1-33.3-12.9
				c2.2,1.5,4.6,3.1,7,4.1c13.1,6.5,30.5,29.4,30.5,29.4s4.8-18.1,22.2-25.3s45.1-14.8,59.5-21.8C368.7-258.6,378.5-314,319.9-348.7
				z"/>
		</g>
	</g>
	<g id="bigger_1_" class="st4">
		<g id="bracketsLogo-2_2_">
			<polygon class="st6" points="730.5,358 730.5,385.9 834.7,488.4 734,590.2 734,620.9 865.4,488.4 			"/>
			<polygon class="st6" points="500.3,358 500.3,385.9 396.2,488.4 496.9,590.2 496.9,620.9 365.4,488.4 			"/>
			<path id="flameLogo-2_2_" class="st6" d="M672.5,472.9c-16.3-9.6-43.2-22.2-47.3-44.9c-12,24,45.6,58.8,19.8,94.2
				c-9.8,13.3-49.9,24-67.8,3.3c-49.3-56,88.5-130.3,48.2-174.6c2.8,16.8-6.5,27.2-18.7,34c-77.2,42.3-87.8,75.4-90,80.2
				c9.4-12.6,20.5-24,32.9-33.1c31.6-23.5,48-26.6,48-26.6s-52.5,53-56.5,88.7c-4.6,41.4,40.1,63.6,63.6,63.6s49.3-3.3,62.6-32
				c6.1-13.1,7.6-29-5.4-43.6c0,0,51.4,34.2,25.5,74.5c-18.5,28.8-70,24.2-89.6,51.2c-10-6.8-21.4-11.1-33.3-12.9
				c2.2,1.5,4.6,3.1,7,4.1c13.1,6.5,30.5,29.4,30.5,29.4s4.8-18.1,22.2-25.3s45.1-14.8,59.5-21.8
				C721.4,562.9,731.2,507.6,672.5,472.9z"/>
		</g>
	</g>
	<g id="bigger_2_" class="st4">
		<g id="bracketsLogo-2_3_">
			<polygon class="st6" points="299.2,1461.2 299.2,1489.1 403.4,1591.5 302.7,1693.3 302.7,1724 434.1,1591.5 			"/>
			<polygon class="st6" points="69,1461.2 69,1489.1 -35.1,1591.5 65.6,1693.3 65.6,1724 -65.9,1591.5 			"/>
			<path id="flameLogo-2_3_" class="st6" d="M241.2,1576c-16.3-9.6-43.2-22.2-47.3-44.9c-12,24,45.6,58.8,19.8,94.2
				c-9.8,13.3-49.9,24-67.8,3.3c-49.3-56,88.5-130.3,48.2-174.6c2.8,16.8-6.5,27.2-18.7,34c-77.2,42.3-87.8,75.4-90,80.2
				c9.4-12.6,20.5-24,32.9-33.1c31.6-23.5,48-26.6,48-26.6s-52.5,53-56.5,88.7c-4.6,41.4,40.1,63.6,63.6,63.6s49.3-3.3,62.6-32
				c6.1-13.1,7.6-29-5.4-43.6c0,0,51.4,34.2,25.5,74.5c-18.5,28.8-70,24.2-89.6,51.2c-10-6.8-21.4-11.1-33.3-12.9
				c2.2,1.5,4.6,3.1,7,4.1c13.1,6.5,30.5,29.4,30.5,29.4s4.8-18.1,22.2-25.3s45.1-14.8,59.5-21.8
				C290.1,1666,299.9,1610.7,241.2,1576z"/>
		</g>
	</g>
	<g id="bigger_3_" class="st4">
		<g id="bracketsLogo-2_4_">
			<polygon class="st6" points="1150.1,-1064.6 1150.1,-1036.7 1254.3,-934.3 1153.6,-832.5 1153.6,-801.7 1285,-934.3 			"/>
			<polygon class="st6" points="919.9,-1064.6 919.9,-1036.7 815.7,-934.3 916.4,-832.5 916.4,-801.7 785,-934.3 			"/>
			<path id="flameLogo-2_4_" class="st6" d="M1092.1-949.7c-16.3-9.6-43.2-22.2-47.3-44.9c-12,24,45.6,58.8,19.8,94.2
				c-9.8,13.3-49.9,24-67.8,3.3c-49.3-56,88.5-130.3,48.2-174.6c2.8,16.8-6.5,27.2-18.7,34c-77.2,42.3-87.8,75.4-90,80.2
				c9.4-12.6,20.5-24,32.9-33.1c31.6-23.5,48-26.6,48-26.6s-52.5,53-56.5,88.7c-4.6,41.4,40.1,63.6,63.6,63.6s49.3-3.3,62.6-32
				c6.1-13.1,7.6-29-5.4-43.6c0,0,51.4,34.2,25.5,74.5c-18.5,28.8-70,24.2-89.6,51.2c-10-6.8-21.4-11.1-33.3-12.9
				c2.2,1.5,4.6,3.1,7,4.1c13.1,6.5,30.5,29.4,30.5,29.4s4.8-18.1,22.2-25.3s45.1-14.8,59.5-21.8
				C1140.9-859.7,1150.7-915.1,1092.1-949.7z"/>
		</g>
	</g>
	<g id="bigger_4_" class="st4">
		<g id="bracketsLogo-2_5_">
			<polygon class="st6" points="2278.3,1881.2 2278.3,1909.1 2382.5,2011.5 2281.8,2113.3 2281.8,2144 2413.2,2011.5 			"/>
			<polygon class="st6" points="2048.1,1881.2 2048.1,1909.1 1943.9,2011.5 2044.6,2113.3 2044.6,2144 1913.2,2011.5 			"/>
			<path id="flameLogo-2_5_" class="st6" d="M2220.3,1996.1c-16.3-9.6-43.2-22.2-47.3-44.9c-12,24,45.6,58.8,19.8,94.2
				c-9.8,13.3-49.9,24-67.8,3.3c-49.3-56,88.5-130.3,48.2-174.6c2.8,16.8-6.5,27.2-18.7,34c-77.2,42.3-87.8,75.4-90,80.2
				c9.4-12.6,20.5-24,32.9-33.1c31.6-23.5,48-26.6,48-26.6s-52.5,53-56.5,88.7c-4.6,41.4,40.1,63.6,63.6,63.6s49.3-3.3,62.6-32
				c6.1-13.1,7.6-29-5.4-43.6c0,0,51.4,34.2,25.5,74.5c-18.5,28.8-70,24.2-89.6,51.2c-10-6.8-21.4-11.1-33.3-12.9
				c2.2,1.5,4.6,3.1,7,4.1c13.1,6.5,30.5,29.4,30.5,29.4s4.8-18.1,22.2-25.3s45.1-14.8,59.5-21.8
				C2269.1,2086.1,2278.9,2030.7,2220.3,1996.1z"/>
		</g>
	</g>
	<g id="bigger_5_" class="st4">
		<g id="bracketsLogo-2_6_">
			<polygon class="st6" points="1714.4,978.5 1714.4,1006.4 1818.6,1108.8 1717.9,1210.6 1717.9,1241.4 1849.3,1108.8 			"/>
			<polygon class="st6" points="1484.2,978.5 1484.2,1006.4 1380,1108.8 1480.7,1210.6 1480.7,1241.4 1349.3,1108.8 			"/>
			<path id="flameLogo-2_6_" class="st6" d="M1656.4,1093.4c-16.3-9.6-43.2-22.2-47.3-44.9c-12,24,45.6,58.8,19.8,94.2
				c-9.8,13.3-49.9,24-67.8,3.3c-49.3-56,88.5-130.3,48.2-174.6c2.8,16.8-6.5,27.2-18.7,34c-77.2,42.3-87.8,75.4-90,80.2
				c9.4-12.6,20.5-24,32.9-33.1c31.6-23.5,48-26.6,48-26.6s-52.5,53-56.5,88.7c-4.6,41.4,40.1,63.6,63.6,63.6s49.3-3.3,62.6-32
				c6.1-13.1,7.6-29-5.4-43.6c0,0,51.4,34.2,25.5,74.5c-18.5,28.8-70,24.2-89.6,51.2c-10-6.8-21.4-11.1-33.3-12.9
				c2.2,1.5,4.6,3.1,7,4.1c13.1,6.5,30.5,29.4,30.5,29.4s4.8-18.1,22.2-25.3s45.1-14.8,59.5-21.8
				C1705.2,1183.4,1715,1128,1656.4,1093.4z"/>
		</g>
	</g>
	<g id="bigger_6_" class="st4">
		<g id="bracketsLogo-2_7_">
			<polygon class="st6" points="1665.4,-241.8 1665.4,-213.9 1769.6,-111.5 1668.9,-9.7 1668.9,21 1800.3,-111.5 			"/>
			<polygon class="st6" points="1435.2,-241.8 1435.2,-213.9 1331,-111.5 1431.7,-9.7 1431.7,21 1300.3,-111.5 			"/>
			<path id="flameLogo-2_7_" class="st6" d="M1607.4-127c-16.3-9.6-43.2-22.2-47.3-44.9c-12,24,45.6,58.8,19.8,94.2
				c-9.8,13.3-49.9,24-67.8,3.3c-49.3-56,88.5-130.3,48.2-174.6c2.8,16.8-6.5,27.2-18.7,34c-77.2,42.3-87.8,75.4-90,80.2
				c9.4-12.6,20.5-24,32.9-33.1c31.6-23.5,48-26.6,48-26.6s-52.5,53-56.5,88.7c-4.6,41.4,40.1,63.6,63.6,63.6s49.3-3.3,62.6-32
				c6.1-13.1,7.6-29-5.4-43.6c0,0,51.4,34.2,25.5,74.5c-18.5,28.8-70,24.2-89.6,51.2c-10-6.8-21.4-11.1-33.3-12.9
				c2.2,1.5,4.6,3.1,7,4.1c13.1,6.5,30.5,29.4,30.5,29.4s4.8-18.1,22.2-25.3c17.4-7.2,45.1-14.8,59.5-21.8
				C1656.2-37,1666-92.3,1607.4-127z"/>
		</g>
	</g>
	<g id="bigger_7_" class="st4">
		<g id="bracketsLogo-2_8_">
			<polygon class="st6" points="2989,-814.9 2989,-787 3093.2,-684.6 2992.5,-582.8 2992.5,-552.1 3123.9,-684.6 			"/>
			<polygon class="st6" points="2758.8,-814.9 2758.8,-787 2654.6,-684.6 2755.3,-582.8 2755.3,-552.1 2623.9,-684.6 			"/>
			<path id="flameLogo-2_8_" class="st6" d="M2931-700.1c-16.3-9.6-43.2-22.2-47.3-44.9c-12,24,45.6,58.8,19.8,94.2
				c-9.8,13.3-49.9,24-67.8,3.3c-49.3-56,88.5-130.3,48.2-174.6c2.8,16.8-6.5,27.2-18.7,34c-77.2,42.3-87.8,75.4-90,80.2
				c9.4-12.6,20.5-24,32.9-33.1c31.6-23.5,48-26.6,48-26.6s-52.5,53-56.5,88.7c-4.6,41.4,40.1,63.6,63.6,63.6s49.3-3.3,62.6-32
				c6.1-13.1,7.6-29-5.4-43.6c0,0,51.4,34.2,25.5,74.5c-18.5,28.8-70,24.2-89.6,51.2c-10-6.8-21.4-11.1-33.3-12.9
				c2.2,1.5,4.6,3.1,7,4.1c13.1,6.5,30.5,29.4,30.5,29.4s4.8-18.1,22.2-25.3s45.1-14.8,59.5-21.8
				C2979.8-610,2989.6-665.4,2931-700.1z"/>
		</g>
	</g>
	<g id="bigger_8_" class="st4">
		<g id="bracketsLogo-2_9_">
			<polygon class="st6" points="2609.8,138 2609.8,165.9 2714,268.4 2613.3,370.2 2613.3,400.9 2744.8,268.4 			"/>
			<polygon class="st6" points="2379.7,138 2379.7,165.9 2275.5,268.4 2376.2,370.2 2376.2,400.9 2244.8,268.4 			"/>
			<path id="flameLogo-2_9_" class="st6" d="M2551.9,252.9c-16.3-9.6-43.2-22.2-47.3-44.9c-12,24,45.6,58.8,19.8,94.2
				c-9.8,13.3-49.9,24-67.8,3.3c-49.3-56,88.5-130.3,48.2-174.6c2.8,16.8-6.5,27.2-18.7,34c-77.2,42.3-87.8,75.4-90,80.2
				c9.4-12.6,20.5-24,32.9-33.1c31.6-23.5,48-26.6,48-26.6s-52.5,53-56.5,88.7c-4.6,41.4,40.1,63.6,63.6,63.6s49.3-3.3,62.6-32
				c6.1-13.1,7.6-29-5.4-43.6c0,0,51.4,34.2,25.5,74.5c-18.5,28.8-70,24.2-89.6,51.2c-10-6.8-21.4-11.1-33.3-12.9
				c2.2,1.5,4.6,3.1,7,4.1c13.1,6.5,30.5,29.4,30.5,29.4s4.8-18.1,22.2-25.3c17.4-7.2,45.1-14.8,59.5-21.8
				C2600.7,342.9,2610.5,287.6,2551.9,252.9z"/>
		</g>
	</g>
	<g id="bigger_9_" class="st4">
		<g id="bracketsLogo-2_10_">
			<polygon class="st6" points="3009.6,1131.4 3009.6,1159.3 3113.8,1261.8 3013.1,1363.6 3013.1,1394.3 3144.5,1261.8 			"/>
			<polygon class="st6" points="2779.4,1131.4 2779.4,1159.3 2675.2,1261.8 2775.9,1363.6 2775.9,1394.3 2644.5,1261.8 			"/>
			<path id="flameLogo-2_10_" class="st6" d="M2951.6,1246.3c-16.3-9.6-43.2-22.2-47.3-44.9c-12,24,45.6,58.8,19.8,94.2
				c-9.8,13.3-49.9,24-67.8,3.3c-49.3-56,88.5-130.3,48.2-174.6c2.8,16.8-6.5,27.2-18.7,34c-77.2,42.3-87.8,75.4-90,80.2
				c9.4-12.6,20.5-24,32.9-33.1c31.6-23.5,48-26.6,48-26.6s-52.5,53-56.5,88.7c-4.6,41.4,40.1,63.6,63.6,63.6s49.3-3.3,62.6-32
				c6.1-13.1,7.6-29-5.4-43.6c0,0,51.4,34.2,25.5,74.5c-18.5,28.8-70,24.2-89.6,51.2c-10-6.8-21.4-11.1-33.3-12.9
				c2.2,1.5,4.6,3.1,7,4.1c13.1,6.5,30.5,29.4,30.5,29.4s4.8-18.1,22.2-25.3s45.1-14.8,59.5-21.8
				C3000.4,1336.3,3010.2,1281,2951.6,1246.3z"/>
		</g>
	</g>
</g>
<g id="large" class="st3">
	<g id="bigger_16_" class="st4">
		<g id="bracketsLogo-2_17_">
			<polygon class="st7" points="2992.9,-815.1 2992.9,-759.3 3201.3,-554.4 2999.9,-350.8 2999.9,-289.4 3262.7,-554.4 			"/>
			<polygon class="st7" points="2532.6,-815.1 2532.6,-759.3 2324.2,-554.4 2525.6,-350.8 2525.6,-289.4 2262.7,-554.4 			"/>
			<path id="flameLogo-2_17_" class="st7" d="M2876.9-585.3c-32.7-19.2-86.3-44.5-94.6-89.8c-24,48,91.1,117.7,39.7,188.3
				c-19.6,26.6-99.8,48-135.6,6.5c-98.5-112,177-260.7,96.3-349.2c5.7,33.6-13.1,54.5-37.5,68c-154.3,84.6-175.7,150.8-180,160.4
				c18.7-25.3,41-48,65.8-66.3c63.2-47.1,95.9-53.2,95.9-53.2S2621.8-614.7,2614-543.2c-9.2,82.8,80.2,127.3,127.3,127.3
				s98.5-6.5,125.1-64.1c12.2-26.2,15.3-58-10.9-87.2c0,0,102.9,68.4,51,149.1c-37.1,57.5-139.9,48.4-179.2,102.4
				c-20.1-13.5-42.7-22.2-66.7-25.7c4.4,3.1,9.2,6.1,13.9,8.3c26.2,13.1,61,58.8,61,58.8s9.6-36.2,44.5-50.6s90.2-29.6,119-43.6
				C2974.6-405.3,2994.2-516,2876.9-585.3z"/>
		</g>
	</g>
	<g id="large_1_" class="st4">
		<g id="bigger_10_">
			<g id="bracketsLogo-2_11_">
				<polygon class="st7" points="710.6,-489.9 710.6,-434.1 919,-229.2 717.6,-25.6 717.6,35.8 980.5,-229.2 				"/>
				<polygon class="st7" points="250.3,-489.9 250.3,-434.1 41.9,-229.2 243.3,-25.6 243.3,35.8 -19.5,-229.2 				"/>
				<path id="flameLogo-2_11_" class="st7" d="M594.7-260.2c-32.7-19.2-86.3-44.5-94.6-89.8c-24,48,91.1,117.7,39.7,188.3
					c-19.6,26.6-99.8,48-135.6,6.5c-98.5-112,177-260.7,96.3-349.2c5.7,33.6-13.1,54.5-37.5,68C308.7-351.8,287.3-285.6,283-276
					c18.7-25.3,41-48,65.8-66.3c63.2-47.1,95.9-53.2,95.9-53.2s-105,106.1-112.9,177.6C322.6-135.1,412-90.6,459.1-90.6
					s98.5-6.5,125.1-64.1c12.2-26.2,15.3-58-10.9-87.2c0,0,102.9,68.4,51,149.1C587.2-35.3,484.4-44.4,445.1,9.6
					C425-3.9,402.4-12.6,378.4-16.1c4.4,3.1,9.2,6.1,13.9,8.3c26.2,13.1,61,58.8,61,58.8s9.6-36.2,44.5-50.6s90.2-29.6,119-43.6
					C692.3-80.1,711.9-190.8,594.7-260.2z"/>
			</g>
		</g>
	</g>
	<g id="large_2_" class="st4">
		<g id="bigger_11_">
			<g id="bracketsLogo-2_12_">
				<polygon class="st7" points="2789.9,1085.8 2789.9,1141.6 2998.3,1346.5 2796.9,1550 2796.9,1611.5 3059.7,1346.5 				"/>
				<polygon class="st7" points="2329.6,1085.8 2329.6,1141.6 2121.2,1346.5 2322.6,1550 2322.6,1611.5 2059.7,1346.5 				"/>
				<path id="flameLogo-2_12_" class="st7" d="M2674,1315.5c-32.7-19.2-86.3-44.5-94.6-89.8c-24,48,91.1,117.7,39.7,188.3
					c-19.6,26.6-99.8,48-135.6,6.5c-98.5-112,177-260.7,96.3-349.2c5.7,33.6-13.1,54.5-37.5,68c-154.3,84.6-175.7,150.8-180,160.4
					c18.7-25.3,41-48,65.8-66.3c63.2-47.1,95.9-53.2,95.9-53.2s-105.1,105.9-112.9,177.4c-9.2,82.8,80.2,127.3,127.3,127.3
					s98.5-6.5,125.1-64.1c12.2-26.2,15.3-58-10.9-87.2c0,0,102.9,68.4,51,149.1c-37.1,57.5-139.9,48.4-179.2,102.4
					c-20.1-13.5-42.7-22.2-66.7-25.7c4.4,3.1,9.2,6.1,13.9,8.3c26.2,13.1,61,58.8,61,58.8s9.6-36.2,44.5-50.6s90.2-29.6,119-43.6
					C2771.6,1495.5,2791.2,1384.8,2674,1315.5z"/>
			</g>
		</g>
	</g>
	<g id="large_3_" class="st4">
		<g id="bigger_12_">
			<g id="bracketsLogo-2_13_">
				<polygon class="st7" points="1711.5,374 1711.5,429.8 1919.9,634.7 1718.5,838.3 1718.5,899.8 1981.4,634.7 				"/>
				<polygon class="st7" points="1251.2,374 1251.2,429.8 1042.8,634.7 1244.2,838.3 1244.2,899.8 981.4,634.7 				"/>
				<path id="flameLogo-2_13_" class="st7" d="M1595.6,603.8c-32.7-19.2-86.3-44.5-94.6-89.8c-24,48,91.1,117.7,39.7,188.3
					c-19.6,26.6-99.8,48-135.6,6.5c-98.5-112,177-260.7,96.3-349.2c5.7,33.6-13.1,54.5-37.5,68c-154.3,84.6-175.7,150.8-180,160.4
					c18.7-25.3,41-48,65.8-66.3c63.2-47.1,95.9-53.2,95.9-53.2s-105.1,105.9-112.9,177.4c-9.2,82.8,80.2,127.3,127.3,127.3
					s98.5-6.5,125.1-64.1c12.2-26.2,15.3-58-10.9-87.2c0,0,102.9,68.4,51,149.1c-37.1,57.5-139.9,48.4-179.2,102.4
					c-20.1-13.5-42.7-22.2-66.7-25.7c4.4,3.1,9.2,6.1,13.9,8.3c26.2,13.1,61,58.8,61,58.8s9.6-36.2,44.5-50.6s90.2-29.6,119-43.6
					C1693.2,783.8,1712.8,673.1,1595.6,603.8z"/>
			</g>
		</g>
	</g>
	<g id="large_4_" class="st4">
		<g id="bigger_13_">
			<g id="bracketsLogo-2_14_">
				<polygon class="st7" points="168.1,770.1 168.1,825.9 376.4,1030.8 175.1,1234.4 175.1,1295.8 437.9,1030.8 				"/>
				<polygon class="st7" points="-292.3,770.1 -292.3,825.9 -500.6,1030.8 -299.2,1234.4 -299.2,1295.8 -562.1,1030.8 				"/>
				<path id="flameLogo-2_14_" class="st7" d="M52.1,999.8c-32.7-19.2-86.3-44.5-94.6-89.8c-24,48,91.1,117.7,39.7,188.3
					c-19.6,26.6-99.8,48-135.6,6.5c-98.5-112,177-260.7,96.3-349.2c5.7,33.6-13.1,54.5-37.5,68c-154.3,84.6-175.7,150.8-180,160.4
					c18.7-25.3,41-48,65.8-66.3c63.2-47.1,95.9-53.2,95.9-53.2S-203,970.4-210.8,1041.9c-9.2,82.8,80.2,127.3,127.3,127.3
					s98.5-6.5,125.1-64.1c12.2-26.2,15.3-58-10.9-87.2c0,0,102.9,68.4,51,149.1c-37.1,57.5-139.9,48.4-179.2,102.4
					c-20.1-13.5-42.7-22.2-66.7-25.7c4.4,3.1,9.2,6.1,13.9,8.3c26.2,13.1,61,58.8,61,58.8s9.6-36.2,44.5-50.6s90.2-29.6,119-43.6
					C149.8,1179.9,169.4,1069.1,52.1,999.8z"/>
			</g>
		</g>
	</g>
	<g id="large_5_" class="st4">
		<g id="bigger_14_">
			<g id="bracketsLogo-2_15_">
				<polygon class="st7" points="1164.8,1852.8 1164.8,1908.6 1373.2,2113.5 1171.8,2317.1 1171.8,2378.5 1434.7,2113.5 				"/>
				<polygon class="st7" points="704.5,1852.8 704.5,1908.6 496.1,2113.5 697.5,2317.1 697.5,2378.5 434.7,2113.5 				"/>
				<path id="flameLogo-2_15_" class="st7" d="M1048.9,2082.5c-32.7-19.2-86.3-44.5-94.6-89.8c-24,48,91.1,117.7,39.7,188.3
					c-19.6,26.6-99.8,48-135.6,6.5c-98.5-112,177-260.7,96.3-349.2c5.7,33.6-13.1,54.5-37.5,68c-154.3,84.6-175.7,150.8-180,160.4
					c18.7-25.3,41-48,65.8-66.3c63.2-47.1,95.9-53.2,95.9-53.2S793.8,2053.1,786,2124.6c-9.2,82.8,80.2,127.3,127.3,127.3
					s98.5-6.5,125.1-64.1c12.2-26.2,15.3-58-10.9-87.2c0,0,102.9,68.4,51,149.1c-37.1,57.5-139.9,48.4-179.2,102.4
					c-20.1-13.5-42.7-22.2-66.7-25.7c4.4,3.1,9.2,6.1,13.9,8.3c26.2,13.1,61,58.8,61,58.8s9.6-36.2,44.5-50.6
					c34.9-14.4,90.2-29.6,119-43.6C1146.5,2262.6,1166.2,2151.8,1048.9,2082.5z"/>
			</g>
		</g>
	</g>
</g>
<g id="newWallpaperLogo">
	<g id="CodeCampLogo_1_">
		<g>
			<polygon class="st7" points="510.4,595.3 510.4,644.7 616.3,744.8 510.4,845 510.4,894.4 668.4,744.8 			"/>
			<polygon class="st7" points="109.9,845 4,744.8 109.9,644.7 109.9,595.3 -48.2,744.8 109.9,894.4 			"/>
		</g>
		<path class="st7" d="M271.9,893.4c0,0-160-25.3-139.9-161.3s190.7-119,147.3-285c0,0,192.8,114.4,110.1,243.8
			c0,0,60.4-1.9,50.9-90c0,0,162.1,251.3-99.6,293.5c0,0,38.5-17.8,37-55.3c-1.7-47.6-65.7-47.8-82.6-85.3
			c-10.1-22.3-11.1-64.3,25.4-101.2C320.6,652.5,128.9,759.3,271.9,893.4z"/>
	</g>
</g>
<g id="newWallpaperLogo_1_">
	<g id="CodeCampLogo_2_">
		<g>
			<polygon class="st7" points="1842.1,259.4 1842.1,308.7 1948,408.9 1842.1,509 1842.1,558.4 2000.2,408.9 			"/>
			<polygon class="st7" points="1441.6,509 1335.7,408.9 1441.6,308.7 1441.6,259.4 1283.6,408.9 1441.6,558.4 			"/>
		</g>
		<path class="st7" d="M1603.6,557.5c0,0-160-25.3-139.9-161.3s190.7-119,147.3-285c0,0,192.8,114.4,110.1,243.8
			c0,0,60.4-1.9,50.9-90c0,0,162.1,251.3-99.6,293.5c0,0,38.5-17.8,37-55.3c-1.7-47.6-65.7-47.8-82.6-85.3
			c-10.1-22.3-11.1-64.3,25.4-101.2C1652.3,316.5,1460.6,423.4,1603.6,557.5z"/>
	</g>
</g>
<g id="newWallpaperLogo_2_">
	<g id="CodeCampLogo_3_">
		<g>
			<polygon class="st7" points="1116.2,361.4 1116.2,410.7 1222.1,510.9 1116.2,611 1116.2,660.4 1274.3,510.9 			"/>
			<polygon class="st7" points="715.8,611 609.9,510.9 715.8,410.7 715.8,361.4 557.7,510.9 715.8,660.4 			"/>
		</g>
		<path class="st7" d="M877.8,659.5c0,0-160-25.3-139.9-161.3s190.7-119,147.3-285c0,0,192.8,114.4,110.1,243.8
			c0,0,60.4-1.9,50.9-90c0,0,162.1,251.3-99.6,293.5c0,0,38.5-17.8,37-55.3c-1.7-47.6-65.7-47.8-82.6-85.3
			c-10.1-22.3-11.1-64.3,25.4-101.2C926.5,418.5,734.8,525.4,877.8,659.5z"/>
	</g>
</g>
<g id="newWallpaperLogo_3_">
	<g id="CodeCampLogo_4_">
		<g>
			<polygon class="st7" points="1344.2,1003.3 1344.2,1052.6 1450.1,1152.7 1344.2,1252.9 1344.2,1302.3 1502.3,1152.7 			"/>
			<polygon class="st7" points="943.7,1252.9 837.8,1152.7 943.7,1052.6 943.7,1003.3 785.7,1152.7 943.7,1302.3 			"/>
		</g>
		<path class="st7" d="M1105.7,1301.4c0,0-160-25.3-139.9-161.3s190.7-119,147.3-285c0,0,192.8,114.4,110.1,243.8
			c0,0,60.4-1.9,50.9-90c0,0,162.1,251.3-99.6,293.5c0,0,38.5-17.8,37-55.3c-1.7-47.6-65.7-47.8-82.6-85.3
			c-10.1-22.3-11.1-64.3,25.4-101.2C1154.4,1060.4,962.7,1167.3,1105.7,1301.4z"/>
	</g>
</g>
<g id="newWallpaperLogo_4_">
	<g id="CodeCampLogo_5_">
		<g>
			<polygon class="st7" points="2196,1477.2 2196,1526.5 2301.9,1626.6 2196,1726.8 2196,1776.2 2354.1,1626.6 			"/>
			<polygon class="st7" points="1795.6,1726.8 1689.6,1626.6 1795.6,1526.5 1795.6,1477.2 1637.5,1626.6 1795.6,1776.2 			"/>
		</g>
		<path class="st7" d="M1957.6,1775.3c0,0-160-25.3-139.9-161.3s190.7-119,147.3-285c0,0,192.8,114.4,110.1,243.8
			c0,0,60.4-1.9,50.9-90c0,0,162.1,251.3-99.6,293.5c0,0,38.5-17.8,37-55.3c-1.7-47.6-65.7-47.8-82.6-85.3
			c-10.1-22.3-11.1-64.3,25.4-101.2C2006.3,1534.3,1814.5,1641.2,1957.6,1775.3z"/>
	</g>
</g>
<g id="newWallpaperLogo_5_">
	<g id="CodeCampLogo_6_">
		<g>
			<polygon class="st7" points="246.4,1675.1 246.4,1724.5 352.3,1824.6 246.4,1924.8 246.4,1974.2 404.5,1824.6 			"/>
			<polygon class="st7" points="-154,1924.8 -260,1824.6 -154,1724.5 -154,1675.1 -312.1,1824.6 -154,1974.2 			"/>
		</g>
		<path class="st7" d="M8,1973.2c0,0-160-25.3-139.9-161.3s190.7-119,147.3-285c0,0,192.8,114.4,110.1,243.8c0,0,60.4-1.9,50.9-90
			c0,0,162.1,251.3-99.6,293.5c0,0,38.5-17.8,37-55.3c-1.7-47.6-65.7-47.8-82.6-85.3c-10.1-22.3-11.1-64.3,25.4-101.2
			C56.7,1732.2-135.1,1839.1,8,1973.2z"/>
	</g>
</g>
<g id="newWallpaperLogo_6_">
	<g id="CodeCampLogo_7_">
		<g>
			<polygon class="st7" points="1254.2,1879.1 1254.2,1928.4 1360.1,2028.6 1254.2,2128.7 1254.2,2178.1 1412.3,2028.6 			"/>
			<polygon class="st7" points="853.8,2128.7 747.8,2028.6 853.8,1928.4 853.8,1879.1 695.7,2028.6 853.8,2178.1 			"/>
		</g>
		<path class="st7" d="M1015.8,2177.2c0,0-160-25.3-139.9-161.3s190.7-119,147.3-285c0,0,192.8,114.4,110.1,243.8
			c0,0,60.4-1.9,50.9-90c0,0,162.1,251.3-99.6,293.5c0,0,38.5-17.8,37-55.3c-1.7-47.6-65.7-47.8-82.6-85.3
			c-10.1-22.3-11.1-64.3,25.4-101.2C1064.4,1936.2,872.7,2043.1,1015.8,2177.2z"/>
	</g>
</g>
<g id="newWallpaperLogo_7_">
	<g id="CodeCampLogo_8_">
		<g>
			<polygon class="st7" points="711.4,2380.6 711.4,2429.9 817.3,2530.1 711.4,2630.2 711.4,2679.6 869.5,2530.1 			"/>
			<polygon class="st7" points="311,2630.2 205.1,2530.1 311,2429.9 311,2380.6 152.9,2530.1 311,2679.6 			"/>
		</g>
		<path class="st7" d="M473,2678.7c0,0-160-25.3-139.9-161.3c20.1-136,190.7-119,147.3-285c0,0,192.8,114.4,110.1,243.8
			c0,0,60.4-1.9,50.9-90c0,0,162.1,251.3-99.6,293.5c0,0,38.5-17.8,37-55.3c-1.7-47.6-65.7-47.8-82.6-85.3
			c-10.1-22.3-11.1-64.3,25.4-101.2C521.7,2437.7,330,2544.6,473,2678.7z"/>
	</g>
</g>
</svg>
